<?xml version="1.0" encoding="utf-8"?>
<!-- Generator: Adobe Illustrator 25.2.3, SVG Export Plug-In . SVG Version: 6.00 Build 0)  -->
<svg version="1.1" xmlns="http://www.w3.org/2000/svg" xmlns:xlink="http://www.w3.org/1999/xlink" x="0px" y="0px"
	 viewBox="0 0 2834.65 2834.65" style="enable-background:new 0 0 2834.65 2834.65;" xml:space="preserve">
<style type="text/css">
	.st0{display:none;}
	.st1{fill:#020203;}
</style>
<g id="Layer_1" class="st0">
</g>
<g id="Layer_2">
	<g>
		<polygon class="st1" points="943.74,2563.32 1224.08,2314.89 1224.08,1606.07 943.74,1606.07 		"/>
		<polygon class="st1" points="2343.17,1274.32 1634.35,1274.32 1634.35,1554.66 2591.6,1554.66 		"/>
		<polygon class="st1" points="1770.36,1606.07 1770.36,1886.62 2423.58,1886.62 2155.72,1606.07 		"/>
		<path class="st1" d="M523.38,1138.92V462.61c421.82,0,763.77,341.95,763.77,763.77h280.94
			c0-576.98-467.73-1044.71-1044.71-1044.71v0L243.05,430.1v708.82v135.4v280.34h981.03v-280.34H523.38V1138.92z"/>
		<path class="st1" d="M1564.05,1608.26h-280.94c0,576.98,467.73,1044.71,1044.71,1044.71v-280.94
			C1906,2372.03,1564.05,2030.08,1564.05,1608.26z"/>
	</g>
</g>
</svg>
