<svg id="Layer_1" data-name="Layer 1" xmlns="http://www.w3.org/2000/svg" xmlns:xlink="http://www.w3.org/1999/xlink" viewBox="0 0 593.4 936.06"><defs><style>.cls-1{isolation:isolate;}.cls-2{fill:#fff;}.cls-3{fill:url(#linear-gradient);}.cls-4{fill:url(#linear-gradient-2);}</style><linearGradient id="linear-gradient" x1="21.45" y1="778.4" x2="196.55" y2="817.13" gradientTransform="matrix(1, 0, 0, -1, -13.08, 1071.89)" gradientUnits="userSpaceOnUse"><stop offset="0" stop-color="#6dc7e2"/><stop offset="1" stop-color="#2b86c7"/></linearGradient><linearGradient id="linear-gradient-2" x1="335.68" y1="848.2" x2="439.99" y2="481.41" xlink:href="#linear-gradient"/></defs><g class="cls-1"><path class="cls-2" d="M136.68,776.27v31.18H94.34V936.06H55.42V807.45H13.08V776.27Z" transform="translate(-13.08 0)"/><path class="cls-2" d="M208.83,807.45v32.33H261v30H208.83v35.06h59v31.18H169.91V776.27h97.88v31.18Z" transform="translate(-13.08 0)"/><path class="cls-2" d="M449.65,936.06H410.73l-65.1-98.56v98.56H306.71V776.27h38.92l65.1,99v-99h38.92Z" transform="translate(-13.08 0)"/><path class="cls-2" d="M606.48,776.27v31.18H564.15V936.06H525.22V807.45H482.88V776.27Z" transform="translate(-13.08 0)"/></g><g class="cls-1"><path class="cls-2" d="M133.16,656.5a39.13,39.13,0,0,1,8.42,24.69q0,20-14,31.76t-39,11.72H14.11V564.88H86q24.36,0,38.13,11.15t13.77,30.28q0,14.12-7.4,23.44a38.2,38.2,0,0,1-19.69,13A37.18,37.18,0,0,1,133.16,656.5ZM53,629.52H78.53q9.56,0,14.68-4.21t5.12-12.4q0-8.19-5.12-12.52t-14.68-4.33H53Zm43.81,59.3q5.36-4.44,5.35-12.86t-5.58-13.2Q91,658,81.26,658H53v35.28H81.72Q91.5,693.26,96.85,688.82Z" transform="translate(-13.08 0)"/><path class="cls-2" d="M225.8,694.62h51v30H186.88V564.88H225.8Z" transform="translate(-13.08 0)"/><path class="cls-2" d="M356.45,564.88v95.6q0,14.34,7.06,22.08t20.71,7.74q13.65,0,20.94-7.74t7.28-22.08v-95.6h38.93v95.37q0,21.4-9.11,36.2a58.28,58.28,0,0,1-24.47,22.3,76.9,76.9,0,0,1-34.25,7.51q-18.9,0-33.8-7.39a55.05,55.05,0,0,1-23.56-22.31q-8.65-14.91-8.65-36.31V564.88Z" transform="translate(-13.08 0)"/><path class="cls-2" d="M540.36,596.06v32.33h52.13v30H540.36v35.06h59v31.18H501.44V564.88h97.88v31.18Z" transform="translate(-13.08 0)"/></g><polygon class="cls-3" points="179.33 0 0.01 511.36 179.33 511.36 179.33 0"/><polygon class="cls-4" points="204.89 2.97 204.89 511.36 586.23 511.36 586.23 449.14 204.89 2.97"/></svg>